<svg xmlns="http://www.w3.org/2000/svg" height="40px" viewBox="0 -960 960 960" width="40px" fill="#5f6368"><path d="M837.05-204.35q-2.09 13.41-16.09 17.67-14 4.25-25.18-6.95l-86.97-86.97H310.26q-24.38 0-41.52-17.14-17.14-17.14-17.14-41.52v-46h430.64q24.63 0 42.42-17.78 17.78-17.78 17.78-42.41v-273.13h45.99q24.38 0 41.52 17.14 17.14 17.14 17.14 41.52v445.08q0 5.03-3.26 7.76-3.25 2.73-6.78 2.73ZM160.8-430.4l70.62-70.62h382.94q5.38 0 8.85-3.47 3.46-3.46 3.46-8.84v-282.21q0-5.38-3.46-8.84-3.47-3.47-8.85-3.47H173.1q-5.38 0-8.84 3.47-3.46 3.46-3.46 8.84v365.14Zm-17.72 73.5q-11.63 0-20.9-7.9-9.27-7.91-9.27-22.34v-408.4q0-24.63 17.78-42.41 17.78-17.78 42.41-17.78h441.26q24.63 0 42.41 17.78 17.78 17.78 17.78 42.41v282.21q0 24.63-17.78 42.41-17.78 17.78-42.41 17.78H251.6l-87.54 87.26q-4.53 4.51-9.93 6.75-5.4 2.23-11.05 2.23Zm17.72-156.43v-294.52 294.52Z"/></svg>